<svg width="192" height="53" viewBox="0 0 192 53" fill="none" xmlns="http://www.w3.org/2000/svg">
<path fill-rule="evenodd" clip-rule="evenodd" d="M166.988 8.8229C166.988 7.58817 166.988 6.97082 167.191 6.48385C167.461 5.83455 167.98 5.31869 168.633 5.04974C169.122 4.84802 169.743 4.84802 170.984 4.84802C172.225 4.84802 172.845 4.84802 173.335 5.04974C173.988 5.31869 174.506 5.83455 174.777 6.48385C174.979 6.97082 174.979 7.58817 174.979 8.8229V12.9103C176.729 11.4497 178.875 10.5894 181.194 10.5894C187.079 10.5894 191.849 16.126 191.849 22.9557C191.849 29.6975 187.201 35.1794 181.421 35.3191C175.474 35.1661 176.762 28.7141 178.074 26.5108C178.612 26.7793 179.219 26.9305 179.863 26.9305C182.069 26.9305 183.858 25.1509 183.858 22.9557C183.858 20.7604 182.069 18.9808 179.863 18.9808C177.656 18.9808 175.867 20.7604 175.867 22.9557C175.867 23.6005 176.022 24.2096 176.295 24.7481C175.294 26.4211 174.861 28.3446 174.469 30.0884C173.83 32.9279 173.298 35.2913 170.593 35.3216C169.606 35.3194 169.068 35.2994 168.633 35.1201C167.98 34.8511 167.461 34.3353 167.191 33.686C166.988 33.199 166.988 32.5816 166.988 31.347V8.8229Z" fill="#FF3434"/>
<path d="M179.862 24.7212C180.842 24.7212 181.637 23.9302 181.637 22.9546C181.637 21.9789 180.842 21.188 179.862 21.188C178.881 21.188 178.086 21.9789 178.086 22.9546C178.086 23.9302 178.881 24.7212 179.862 24.7212Z" fill="#FF3434"/>
<path fill-rule="evenodd" clip-rule="evenodd" d="M159.751 35.3193C157.289 35.2323 156.666 32.7493 155.994 30.0737C155.5 28.1095 154.981 26.0414 153.69 24.7412C153.961 24.2043 154.115 23.5977 154.115 22.9555C154.115 20.7603 152.326 18.9806 150.119 18.9806C147.913 18.9806 146.124 20.7603 146.124 22.9555C146.124 25.1507 147.913 26.9303 150.119 26.9303C150.764 26.9303 151.372 26.7786 151.911 26.5091C153.416 28.4032 154.903 33.4446 151.51 34.9143C150.64 35.1801 149.729 35.3217 148.787 35.3217C142.903 35.3217 138.133 29.7852 138.133 22.9555C138.133 16.1259 142.903 10.5894 148.787 10.5894C151.125 10.5894 153.286 11.4627 155.042 12.9434C155.07 12.657 155.12 12.4296 155.205 12.2251C155.475 11.5758 155.994 11.06 156.647 10.791C157.136 10.5894 157.757 10.5894 158.998 10.5894C160.239 10.5894 160.859 10.5894 161.349 10.791C162.002 11.06 162.52 11.5758 162.791 12.2251C162.993 12.7121 162.993 13.3294 162.993 14.5642V31.3468C162.993 32.5815 162.993 33.1988 162.791 33.6858C162.52 34.3351 162.002 34.851 161.349 35.12C160.971 35.276 160.513 35.3113 159.751 35.3193Z" fill="#FF3434"/>
<path d="M150.119 24.7212C151.099 24.7212 151.894 23.9302 151.894 22.9546C151.894 21.9789 151.099 21.188 150.119 21.188C149.138 21.188 148.343 21.9789 148.343 22.9546C148.343 23.9302 149.138 24.7212 150.119 24.7212Z" fill="#FF3434"/>
<path d="M118.599 14.5642C118.599 13.3295 118.599 12.7121 118.801 12.2252C119.072 11.5759 119.59 11.06 120.243 10.7911C120.732 10.5894 121.353 10.5894 122.594 10.5894C123.835 10.5894 124.456 10.5894 124.945 10.7911C125.597 11.06 126.116 11.5759 126.386 12.2252C126.589 12.7121 126.589 13.3295 126.589 14.5642V31.3468C126.589 32.5816 126.589 33.1989 126.386 33.6859C126.116 34.3352 125.597 34.851 124.945 35.12C124.456 35.3217 123.835 35.3217 122.594 35.3217C121.353 35.3217 120.732 35.3217 120.243 35.12C119.59 34.851 119.072 34.3352 118.801 33.6859C118.599 33.1989 118.599 32.5816 118.599 31.3468V14.5642Z" fill="#FF3434"/>
<path d="M126.59 23.3801C126.59 21.1322 126.59 18.5222 130.141 18.5222C132.361 18.5222 137.472 20.9166 137.236 14.5474C137.236 7.92264 128.199 11.0415 126.146 13.664V23.3803H126.59V23.3801Z" fill="#FF3434"/>
<path d="M113.787 27.7802C114.762 28.8277 114.9 30.4541 113.959 31.5317C112.977 32.6554 112.015 33.3151 109.905 34.1772C106.809 35.4422 103.376 35.6641 100.138 34.8085C96.901 33.953 94.0407 32.0679 92.0003 29.4454C89.9607 26.8229 88.8545 23.6097 88.8545 20.3042C88.8545 16.9986 89.9607 13.7854 92.0003 11.1629C94.0407 8.54051 96.901 6.65529 100.138 5.79976C103.376 4.94421 106.809 5.16614 109.905 6.43112C112.156 7.35089 113.22 8.16449 114.434 9.58781C115.324 10.6312 115.161 12.1936 114.147 13.1192L111.862 15.2076C110.87 16.1136 109.279 15.8423 108.21 15.0281C107.74 14.67 107.221 14.3724 106.665 14.1454C105.291 13.5838 103.767 13.4853 102.33 13.8651C100.892 14.2449 99.6228 15.0818 98.7168 16.246C97.8107 17.4103 97.3199 18.8367 97.3199 20.3042C97.3199 21.7716 97.8107 23.1981 98.7168 24.3623C99.6228 25.5265 100.892 26.3634 102.33 26.7432C103.767 27.1231 105.291 27.0245 106.665 26.4629C107.196 26.2459 107.694 25.9645 108.147 25.6275C109.222 24.8281 110.854 24.6277 111.766 25.6077L113.787 27.7802Z" fill="#FF3434"/>
<path d="M75.5361 4.4055C75.5361 3.17081 75.5361 2.55347 75.7385 2.06649C76.0092 1.41719 76.5274 0.901323 77.1806 0.632375C77.6699 0.430664 78.2905 0.430664 79.5316 0.430664C80.7727 0.430664 81.3933 0.430664 81.8826 0.632375C82.5351 0.901323 83.0541 1.41719 83.324 2.06649C83.5271 2.55347 83.5271 3.17081 83.5271 4.4055C83.5271 5.6402 83.5271 6.25755 83.324 6.74453C83.0541 7.39383 82.5351 7.9097 81.8826 8.17863C81.3933 8.38036 80.7727 8.38036 79.5316 8.38036C78.2905 8.38036 77.6699 8.38036 77.1806 8.17863C76.5274 7.9097 76.0092 7.39383 75.7385 6.74453C75.5361 6.25755 75.5361 5.6402 75.5361 4.4055Z" fill="#25CBDD"/>
<path d="M75.5361 15.0042C75.5361 13.7694 75.5361 13.1521 75.7385 12.6651C76.0092 12.0158 76.5274 11.5 77.1806 11.231C77.6699 11.0293 78.2905 11.0293 79.5316 11.0293C80.7727 11.0293 81.3933 11.0293 81.8826 11.231C82.5351 11.5 83.0541 12.0158 83.324 12.6651C83.5271 13.1521 83.5271 13.7694 83.5271 15.0042V31.3452C83.5271 32.5798 83.5271 33.1972 83.324 33.6842C83.0541 34.3335 82.5351 34.8493 81.8826 35.1183C81.3933 35.32 80.7727 35.32 79.5316 35.32C78.2905 35.32 77.6699 35.32 77.1806 35.1183C76.5274 34.8493 76.0092 34.3335 75.7385 33.6842C75.5361 33.1972 75.5361 32.5798 75.5361 31.3452V15.0042Z" fill="#25CBDD"/>
<path d="M82.5293 23.482L86.0392 29.1663C86.1089 29.2795 86.2898 29.1938 86.2468 29.0681C84.8388 24.9683 83.7445 20.3594 83.528 15.8887L82.5293 23.482Z" fill="#25CBDD"/>
<path d="M76.4241 24.2802L73.725 27.733C73.648 27.8314 73.488 27.7462 73.5264 27.6275C74.6514 24.15 75.3616 20.1312 75.5366 16.3306L76.4241 24.2802Z" fill="#25CBDD"/>
<path d="M76.4241 29.5797L73.725 33.0324C73.648 33.1309 73.488 33.0457 73.5264 32.927C74.6514 29.4494 75.3616 25.4307 75.5366 21.63L76.4241 29.5797Z" fill="#25CBDD"/>
<path d="M83.5298 20.3041L86.3486 24.6596C86.422 24.7727 86.5851 24.6852 86.531 24.562C85.2499 21.66 84.3194 20.0263 83.5283 14.121L83.5298 20.3041Z" fill="#25CBDD"/>
<path fill-rule="evenodd" clip-rule="evenodd" d="M57.7792 6.17125C57.7792 4.93655 57.7792 4.3192 57.982 3.83223C58.2523 3.18293 58.7708 2.66707 59.4235 2.39812C59.9131 2.19641 60.5336 2.19641 61.7747 2.19641C63.0158 2.19641 63.6363 2.19641 64.1259 2.39812C64.7785 2.66707 65.2971 3.18293 65.5674 3.83223C65.7702 4.3192 65.7702 4.93655 65.7702 6.17125V11.2502L68.664 11.0703C69.9411 10.9909 70.5796 10.9512 71.0868 11.1273C71.799 11.3744 72.3725 11.9104 72.6649 12.6021C72.8731 13.0948 72.8731 13.7312 72.8731 15.0042C72.8731 16.2773 72.8731 16.9137 72.6649 17.4064C72.3725 18.0981 71.799 18.6341 71.0868 18.8812C70.5796 19.0573 69.9411 19.0176 68.664 18.9382L65.7702 18.7583V23.3956V24.7205C65.7702 25.3366 65.7702 25.6447 65.8382 25.8974C66.0229 26.5832 66.5614 27.119 67.2508 27.3027C67.5048 27.3704 67.8145 27.3704 68.4338 27.3704V27.3705C69.2053 27.3706 69.7986 27.3745 70.122 27.4607C71.0412 27.7058 71.7592 28.42 72.0055 29.3345C72.0963 29.6715 72.0963 30.0821 72.0963 30.9036V31.3453C72.0963 32.58 72.0963 33.1973 71.8935 33.6843C71.6232 34.3336 71.1046 34.8495 70.452 35.1184C69.9625 35.3201 69.3419 35.3201 68.1008 35.3201H66.991C66.3428 35.3201 66.0038 35.319 65.7154 35.2985C64.9853 35.2465 64.281 35.104 63.6135 34.8821C64.6626 35.8913 66.1052 36.5105 68.0527 36.3815C68.1881 36.3725 68.2339 36.5754 68.1029 36.6105C64.7885 37.4976 62.4101 36.2696 60.7793 34.3195C60.9348 35.2955 61.3796 36.1262 62.3917 36.7341C62.5019 36.8003 62.4461 36.9751 62.3217 36.942C58.5528 35.9423 57.9056 31.0083 57.8103 27.5428C57.8069 27.5036 57.8038 27.4643 57.801 27.4248C57.7792 27.122 57.7792 26.7631 57.7792 26.0455L55.5272 28.6593C55.4463 28.7532 55.2954 28.6635 55.3392 28.5478C56.6213 25.1654 57.5428 22.5966 57.7668 18.7646L57.5363 18.7824C56.3681 18.8987 55.7841 18.9568 55.3139 18.8313C54.4858 18.6105 53.8153 18.0068 53.5121 17.2092C53.3398 16.7562 53.3398 16.1721 53.3398 15.0042C53.3398 13.8363 53.3398 13.2523 53.5121 12.7993C53.8153 12.0017 54.4858 11.3979 55.3139 11.1771C55.7841 11.0517 56.3681 11.1098 57.5363 11.2261L57.7792 11.2432V6.17125Z" fill="#25CBDD"/>
<path fill-rule="evenodd" clip-rule="evenodd" d="M40.948 25.5887C49.2917 25.4864 52.0093 24.7482 52.0093 19.4221C52.0093 14.1223 48.0139 10.1475 40.4669 10.1475C34.9508 10.1475 31.4552 12.9306 29.5201 16.3012C28.3056 18.3098 27.5928 20.7567 27.5928 23.3969C27.5928 30.2266 32.809 35.7631 40.7999 35.7631H40.9109L40.9132 35.7629C41.2176 35.7616 41.511 35.7553 41.7935 35.7441C43.2779 35.7477 45.9193 35.7339 49.3457 34.0517C51.4878 33 51.2324 31.181 49.3457 28.2551C48.58 27.0676 47.3972 27.3734 45.7942 27.8134C44.303 28.2226 42.1447 28.6635 41.1297 28.6967H41.0351L40.9201 28.7052L40.6981 28.6946C36.0946 28.6051 36.4715 25.6051 36.4715 25.6051L40.2764 25.5914V25.5887H40.948ZM36.4715 21.6303C36.5012 21.4827 36.516 21.4088 36.5309 21.3439C37.0692 18.9772 39.1544 17.2766 41.5927 17.2155C41.6597 17.2138 41.7353 17.2138 41.8866 17.2138H42.2427C43.4686 17.2138 44.4624 18.2025 44.4624 19.4221C44.4624 20.6417 43.4686 21.6303 42.2427 21.6303H36.4715Z" fill="#25CBDD"/>
<path d="M27.0494 17.9897C30.5821 12.8656 35.0152 11.02 36.913 10.5894V14.5091C33.1072 15.4438 26.8924 17.7756 25.5619 21.745C25.5212 21.8665 25.3939 21.8516 25.4155 21.7253C25.5827 20.7485 26.1254 19.3299 27.0494 17.9897Z" fill="#25CBDD"/>
<path d="M43.4068 10.3668L41.3536 12.3542C36.7535 11.907 28.9976 13.9777 25.8316 17.5247C25.747 17.6195 25.5811 17.5252 25.6299 17.4081C28.0311 11.6384 35.1266 9.46334 43.4068 10.3668Z" fill="#25CBDD"/>
<path d="M27.109 28.5015C26.2366 22.8999 28.4879 17.8511 29.4783 16.3849L31.1431 19.8629C29.2125 22.8339 26.9347 28.4768 28.5358 31.9789C28.5892 32.0955 28.4888 32.1684 28.4184 32.0612C27.8985 31.2698 27.3333 29.9422 27.109 28.5015Z" fill="#25CBDD"/>
<path d="M32.1562 34.2113C28.2917 30.0459 27.5928 25.1625 27.5928 23.3959L31.1443 25.1625C31.2076 28.6975 32.1102 34.2337 35.35 36.2029C35.4599 36.2697 35.4141 36.3988 35.2937 36.3532C34.401 36.0151 33.1516 35.2841 32.1562 34.2113Z" fill="#25CBDD"/>
<path d="M1.42425 6.50637L12.053 22.9548L16.0485 22.5131V15.0051L8.1749 2.32318C7.38283 1.04737 5.68536 0.67904 4.4312 1.51083L2.15552 3.02014C0.996307 3.78896 0.670864 5.34048 1.42425 6.50637Z" fill="#25CBDD"/>
<path d="M30.673 6.50637L20.0442 22.9548L16.0488 22.5131V15.0051L23.9223 2.32318C24.7145 1.04737 26.4119 0.67904 27.6661 1.51083L29.9417 3.02014C31.101 3.78896 31.4264 5.34048 30.673 6.50637Z" fill="#25CBDD"/>
<path d="M20.4873 8.82198L19.7045 4.53914C19.6825 4.41909 19.509 4.41774 19.4847 4.53734C18.7619 8.09287 17.8185 11.6042 16.0479 15.0051L20.4873 8.82198Z" fill="#25CBDD"/>
<path d="M22.264 6.17135L21.8903 2.08224C21.8788 1.9551 21.6902 1.94542 21.6629 2.07015C20.9456 5.34213 20.0047 7.25334 18.2686 10.5878L22.264 6.17135Z" fill="#25CBDD"/>
<path d="M12.0527 19.4216C12.0527 18.1869 12.0527 17.5696 12.2555 17.0826C12.5258 16.4333 13.0444 15.9174 13.697 15.6484C14.1865 15.4468 14.8071 15.4468 16.0482 15.4468C17.2892 15.4468 17.9098 15.4468 18.3993 15.6484C19.052 15.9174 19.5705 16.4333 19.8409 17.0826C20.0436 17.5696 20.0436 18.1869 20.0436 19.4216V31.7878C20.0436 33.0225 20.0436 33.6398 19.8409 34.1268C19.5705 34.7761 19.052 35.2919 18.3993 35.5609C17.9098 35.7626 17.2892 35.7626 16.0482 35.7626C14.8071 35.7626 14.1865 35.7626 13.697 35.5609C13.0444 35.2919 12.5258 34.7761 12.2555 34.1268C12.0527 33.6398 12.0527 33.0225 12.0527 31.7878V19.4216Z" fill="#25CBDD"/>
<path d="M19.1562 30.9035L22.8907 34.6187C22.9684 34.6961 23.094 34.6272 23.0641 34.5218C22.0315 30.8774 16.7084 25.8653 24.9274 15.3906L19.1562 22.6779V30.9035Z" fill="#25CBDD"/>
<path d="M15.3279 24.5217L10.1903 30.0776C10.109 30.1654 9.97152 30.0826 10.0151 29.9713C11.1214 27.1479 13.0918 24.6742 8.94629 18.0964L15.3279 24.5217Z" fill="#25CBDD"/>
<path d="M12.9407 30.3749L10.2018 33.5661C10.1227 33.6583 9.97372 33.5745 10.0121 33.4595C10.8554 30.9298 11.2423 29.7244 11.9696 26.8188L12.9407 30.3749Z" fill="#25CBDD"/>
<path d="M8.05802 13.6807L8.82138 19.7564C8.83776 19.8872 8.64581 19.9317 8.5991 19.8083C7.23928 16.2169 6.26612 14.736 4.0625 10.1475L8.05802 13.6807Z" fill="#25CBDD"/>
<path d="M6.28202 13.2386L6.72866 18.216C6.74068 18.3499 6.55111 18.3835 6.51575 18.2539L6.50051 18.198C5.60092 14.8975 4.80575 11.9801 1.78711 6.61389L6.28202 13.2386Z" fill="#25CBDD"/>
<g opacity="0.5">
<path d="M50.708 46.0505H53.8218C54.566 46.0505 55.222 46.1936 55.7899 46.4799C56.3644 46.7597 56.8083 47.1567 57.1216 47.6707C57.4415 48.1848 57.6014 48.7834 57.6014 49.4667C57.6014 50.1499 57.4415 50.7486 57.1216 51.2626C56.8083 51.7767 56.3644 52.1769 55.7899 52.4632C55.222 52.743 54.566 52.8829 53.8218 52.8829H50.708V46.0505ZM53.7435 51.5847C54.4289 51.5847 54.9739 51.396 55.3787 51.0186C55.7899 50.6347 55.9956 50.1174 55.9956 49.4667C55.9956 48.816 55.7899 48.3019 55.3787 47.9245C54.9739 47.5406 54.4289 47.3486 53.7435 47.3486H52.2943V51.5847H53.7435Z" fill="#062549"/>
<path d="M65.8673 51.614V52.8829H60.5602V46.0505H65.74V47.3194H62.1367V48.803H65.319V50.0328H62.1367V51.614H65.8673Z" fill="#062549"/>
<path d="M75.3862 46.0505L72.4193 52.8829H70.8526L67.8955 46.0505H69.6091L71.6947 50.9308L73.8097 46.0505H75.3862Z" fill="#062549"/>
<path d="M94.5598 46.0505H97.6735C98.4177 46.0505 99.0738 46.1936 99.6417 46.4799C100.216 46.7597 100.66 47.1567 100.973 47.6707C101.293 48.1848 101.453 48.7834 101.453 49.4667C101.453 50.1499 101.293 50.7486 100.973 51.2626C100.66 51.7767 100.216 52.1769 99.6417 52.4632C99.0738 52.743 98.4177 52.8829 97.6735 52.8829H94.5598V46.0505ZM97.5952 51.5847C98.2806 51.5847 98.8257 51.396 99.2304 51.0186C99.6417 50.6347 99.8473 50.1174 99.8473 49.4667C99.8473 48.816 99.6417 48.3019 99.2304 47.9245C98.8257 47.5406 98.2806 47.3486 97.5952 47.3486H96.146V51.5847H97.5952Z" fill="#062549"/>
<path d="M109.719 51.614V52.8829H104.412V46.0505H109.592V47.3194H105.988V48.803H109.171V50.0328H105.988V51.614H109.719Z" fill="#062549"/>
<path d="M114.996 53C114.454 53 113.929 52.9284 113.419 52.7853C112.917 52.6356 112.512 52.4437 112.205 52.2094L112.744 51.0186C113.037 51.2333 113.387 51.4058 113.791 51.5359C114.196 51.6661 114.601 51.7311 115.006 51.7311C115.456 51.7311 115.789 51.6661 116.004 51.5359C116.22 51.3993 116.328 51.2203 116.328 50.9991C116.328 50.8364 116.262 50.703 116.132 50.5989C116.008 50.4883 115.844 50.4004 115.642 50.3354C115.446 50.2703 115.179 50.1987 114.839 50.1206C114.317 49.997 113.889 49.8734 113.556 49.7497C113.224 49.6261 112.936 49.4276 112.695 49.1543C112.46 48.881 112.342 48.5167 112.342 48.0612C112.342 47.6642 112.45 47.3063 112.665 46.9875C112.881 46.6621 113.204 46.4051 113.635 46.2164C114.072 46.0277 114.604 45.9333 115.231 45.9333C115.668 45.9333 116.096 45.9854 116.514 46.0895C116.931 46.1936 117.297 46.3433 117.61 46.5385L117.121 47.7391C116.487 47.3812 115.854 47.2022 115.221 47.2022C114.777 47.2022 114.448 47.2738 114.232 47.417C114.023 47.5601 113.919 47.7488 113.919 47.9831C113.919 48.2173 114.04 48.393 114.281 48.5101C114.529 48.6208 114.904 48.7314 115.407 48.842C115.929 48.9656 116.357 49.0893 116.69 49.2129C117.023 49.3365 117.307 49.5318 117.542 49.7985C117.783 50.0653 117.904 50.4265 117.904 50.882C117.904 51.2724 117.793 51.6303 117.571 51.9556C117.356 52.2745 117.029 52.5283 116.592 52.717C116.155 52.9057 115.623 53 114.996 53Z" fill="#062549"/>
<path d="M120.75 46.0505H122.337V52.8829H120.75V46.0505Z" fill="#062549"/>
<path d="M130.357 49.3593H131.807V52.1313C131.434 52.4111 131.004 52.6259 130.514 52.7755C130.024 52.9252 129.532 53 129.035 53C128.324 53 127.684 52.8504 127.116 52.551C126.548 52.2452 126.101 51.8255 125.775 51.2919C125.455 50.7518 125.295 50.1434 125.295 49.4667C125.295 48.7899 125.455 48.1848 125.775 47.6512C126.101 47.1111 126.552 46.6914 127.126 46.3921C127.701 46.0863 128.347 45.9333 129.065 45.9333C129.665 45.9333 130.21 46.0342 130.7 46.2359C131.19 46.4376 131.601 46.7305 131.934 47.1144L130.915 48.0514C130.426 47.5373 129.835 47.2803 129.143 47.2803C128.706 47.2803 128.317 47.3714 127.978 47.5536C127.639 47.7358 127.374 47.9928 127.185 48.3247C126.996 48.6566 126.901 49.0372 126.901 49.4667C126.901 49.8896 126.996 50.2671 127.185 50.5989C127.374 50.9308 127.635 51.1911 127.968 51.3798C128.308 51.562 128.693 51.6531 129.124 51.6531C129.581 51.6531 129.992 51.5554 130.357 51.3602V49.3593Z" fill="#062549"/>
<path d="M141.329 46.0505V52.8829H140.027L136.609 48.7346V52.8829H135.043V46.0505H136.355L139.762 50.1987V46.0505H141.329Z" fill="#062549"/>
<path d="M85.3668 49.4668L87.1304 51.2347L86.3079 52.0936L84.5247 50.3063L82.7414 52.0936L81.9189 51.2347L83.6826 49.4668L81.9189 47.699L82.7414 46.8401L84.5247 48.6274L86.3079 46.8401L87.1304 47.699L85.3668 49.4668Z" fill="#062549"/>
</g>
</svg>
